solid JSxCAD
facet normal -0.866024766898234 -0.500001103117505 -3.706143144918578e-7
outer loop
vertex -5.64003 -1.0565 5.5
vertex -6.25 0 0
vertex -4.10697 -3.71183 5.5
endloop
endfacet
facet normal -0.8660256023405581 -0.49999965609055524 0
outer loop
vertex -6.25 0 0
vertex -5.64003 -1.0565 5.5
vertex -6.25 0 5.5
endloop
endfacet
facet normal -0.8660264308565134 -0.4999982210498232 0.0000022227780126718276
outer loop
vertex -6.25 0 0
vertex -3.125 -5.41266 5.5
vertex -4.10697 -3.71183 5.5
endloop
endfacet
facet normal -0.8660256023405085 -0.4999996560905256 3.3977802667613047e-7
outer loop
vertex -5.64003 -1.0565 0
vertex -3.125 -5.41266 5.5
vertex -6.25 0 0
endloop
endfacet
facet normal -0.8660247668976818 -0.5000011031171868 -0.000001188338961591153
outer loop
vertex -4.10697 -3.71183 0
vertex -3.125 -5.41266 5.5
vertex -5.64003 -1.0565 0
endloop
endfacet
facet normal -0.8660264308586529 -0.49999822105105834 0
outer loop
vertex -3.125 -5.41266 5.5
vertex -4.10697 -3.71183 0
vertex -3.125 -5.41266 0
endloop
endfacet
facet normal 0 0.9999999999999999 0
outer loop
vertex -0.53368 -3.71183 0
vertex 4.10697 -3.71183 5.5
vertex 4.10697 -3.71183 0
endloop
endfacet
facet normal 0 0.9999999999999999 0
outer loop
vertex -0.53368 -3.71183 0
vertex -0.53368 -3.71183 5.5
vertex 4.10697 -3.71183 5.5
endloop
endfacet
facet normal 0 1 0
outer loop
vertex -4.10697 -3.71183 0
vertex -0.53368 -3.71183 5.5
vertex -0.53368 -3.71183 0
endloop
endfacet
facet normal 0 1 0
outer loop
vertex -0.53368 -3.71183 5.5
vertex -4.10697 -3.71183 0
vertex -4.10697 -3.71183 5.5
endloop
endfacet
facet normal 0.8660245386384224 -0.5000014984720363 0.0000013513526222255352
outer loop
vertex 4.10697 -3.71183 5.5
vertex 3.125 -5.41266 0
vertex 5.07948 -2.0274 5.5
endloop
endfacet
facet normal 0.8660264308586529 -0.49999822105105834 0
outer loop
vertex 3.125 -5.41266 0
vertex 4.10697 -3.71183 5.5
vertex 3.125 -5.41266 5.5
endloop
endfacet
facet normal 0.8660253919013006 -0.5000000205821793 1.3849323161555458e-7
outer loop
vertex 3.125 -5.41266 0
vertex 6.25 0 5.5
vertex 5.07948 -2.0274 5.5
endloop
endfacet
facet normal 0.8660254893329055 -0.4999998518256728 -8.294228782916149e-8
outer loop
vertex 5.07948 -2.0274 0
vertex 6.25 0 5.5
vertex 3.125 -5.41266 0
endloop
endfacet
facet normal 0.8660253919013089 -0.5000000205821842 0
outer loop
vertex 6.25 0 5.5
vertex 5.07948 -2.0274 0
vertex 6.25 0 0
endloop
endfacet
facet normal 0 0 -1
outer loop
vertex 4.10697 -3.71183 0
vertex 5.07948 -2.0274 0
vertex 3.125 -5.41266 0
endloop
endfacet
facet normal 0 0 1
outer loop
vertex 5.07948 -2.0274 0
vertex 4.10697 -3.71183 0
vertex 4.28059 -3.41112 0
endloop
endfacet
facet normal 0 -1 0
outer loop
vertex -3.125 -5.41266 5.5
vertex 3.125 -5.41266 0
vertex 3.125 -5.41266 5.5
endloop
endfacet
facet normal 0 -1 0
outer loop
vertex 3.125 -5.41266 0
vertex -3.125 -5.41266 5.5
vertex -3.125 -5.41266 0
endloop
endfacet
facet normal -0.1423144376071694 0.9898214994879406 0
outer loop
vertex 1.55781 -3.41112 0
vertex -0.53368 -3.71183 5.5
vertex 1.55781 -3.41112 5.5
endloop
endfacet
facet normal -0.14231443760716933 0.9898214994879406 0
outer loop
vertex -0.53368 -3.71183 5.5
vertex 1.55781 -3.41112 0
vertex -0.53368 -3.71183 0
endloop
endfacet
facet normal 0 1 0
outer loop
vertex 1.55781 -3.41112 0
vertex 4.28059 -3.41112 5.5
vertex 4.28059 -3.41112 0
endloop
endfacet
facet normal 0 1 0
outer loop
vertex 4.28059 -3.41112 5.5
vertex 1.55781 -3.41112 0
vertex 1.55781 -3.41112 5.5
endloop
endfacet
facet normal 0 -0.9999999999999999 0
outer loop
vertex -0.53368 -3.71183 5.5
vertex 4.10697 -3.71183 0
vertex 4.10697 -3.71183 5.5
endloop
endfacet
facet normal 0 -0.9999999999999999 0
outer loop
vertex -0.53368 -3.71183 5.5
vertex -0.53368 -3.71183 0
vertex 4.10697 -3.71183 0
endloop
endfacet
facet normal 0 -1 0
outer loop
vertex -4.10697 -3.71183 5.5
vertex -0.53368 -3.71183 0
vertex -0.53368 -3.71183 5.5
endloop
endfacet
facet normal 0 -1 0
outer loop
vertex -0.53368 -3.71183 0
vertex -4.10697 -3.71183 5.5
vertex -4.10697 -3.71183 0
endloop
endfacet
facet normal 0 1 0
outer loop
vertex -4.61375 -2.83406 0
vertex -2.45573 -2.83406 5.5
vertex -2.45573 -2.83406 0
endloop
endfacet
facet normal 0 1 0
outer loop
vertex -2.45573 -2.83406 5.5
vertex -4.61375 -2.83406 0
vertex -4.61375 -2.83406 5.5
endloop
endfacet
facet normal 0.41541469048544377 0.9096321426427735 0
outer loop
vertex -0.53368 -3.71183 0
vertex -2.45573 -2.83406 5.5
vertex -0.53368 -3.71183 5.5
endloop
endfacet
facet normal 0.41541469048544377 0.9096321426427735 0
outer loop
vertex -2.45573 -2.83406 5.5
vertex -0.53368 -3.71183 0
vertex -2.45573 -2.83406 0
endloop
endfacet
facet normal -0.6548626094087563 0.7557479492518352 0
outer loop
vertex 3.1547 -2.0274 0
vertex 1.55781 -3.41112 5.5
vertex 3.1547 -2.0274 5.5
endloop
endfacet
facet normal -0.6548626094087565 0.7557479492518352 0
outer loop
vertex 1.55781 -3.41112 5.5
vertex 3.1547 -2.0274 0
vertex 1.55781 -3.41112 0
endloop
endfacet
facet normal 0 1 0
outer loop
vertex 3.1547 -2.0274 0
vertex 5.07948 -2.0274 5.5
vertex 5.07948 -2.0274 0
endloop
endfacet
facet normal 0 1 0
outer loop
vertex 5.07948 -2.0274 5.5
vertex 3.1547 -2.0274 0
vertex 3.1547 -2.0274 5.5
endloop
endfacet
facet normal 0 -1 0
outer loop
vertex 1.55781 -3.41112 5.5
vertex 4.28059 -3.41112 0
vertex 4.28059 -3.41112 5.5
endloop
endfacet
facet normal 0 -1 0
outer loop
vertex 4.28059 -3.41112 0
vertex 1.55781 -3.41112 5.5
vertex 1.55781 -3.41112 0
endloop
endfacet
facet normal 0 1 0
outer loop
vertex -5.64003 -1.0565 0
vertex -3.5981 -1.0565 5.5
vertex -3.5981 -1.0565 0
endloop
endfacet
facet normal 0 1 0
outer loop
vertex -3.5981 -1.0565 5.5
vertex -5.64003 -1.0565 0
vertex -5.64003 -1.0565 5.5
endloop
endfacet
facet normal 0.8412531984601873 0.5406413377466661 0
outer loop
vertex -2.45573 -2.83406 0
vertex -3.5981 -1.0565 5.5
vertex -2.45573 -2.83406 5.5
endloop
endfacet
facet normal 0.8412531984601871 0.5406413377466666 0
outer loop
vertex -3.5981 -1.0565 5.5
vertex -2.45573 -2.83406 0
vertex -3.5981 -1.0565 0
endloop
endfacet
facet normal 0 -1 0
outer loop
vertex -4.61375 -2.83406 5.5
vertex -2.45573 -2.83406 0
vertex -2.45573 -2.83406 5.5
endloop
endfacet
facet normal 0 -1 0
outer loop
vertex -2.45573 -2.83406 0
vertex -4.61375 -2.83406 5.5
vertex -4.61375 -2.83406 0
endloop
endfacet
facet normal -0.9594927627536367 0.28173327496657774 0
outer loop
vertex 3.75 0 0
vertex 3.1547 -2.0274 5.5
vertex 3.75 0 5.5
endloop
endfacet
facet normal -0.9594927627536367 0.28173327496657774 0
outer loop
vertex 3.1547 -2.0274 5.5
vertex 3.75 0 0
vertex 3.1547 -2.0274 0
endloop
endfacet
facet normal 0 1 0
outer loop
vertex 6.25 0 0
vertex 3.75 0 5.5
vertex 6.25 0 5.5
endloop
endfacet
facet normal 0 1 0
outer loop
vertex 3.75 0 5.5
vertex 6.25 0 0
vertex 3.75 0 0
endloop
endfacet
facet normal 0 -1 0
outer loop
vertex 3.1547 -2.0274 5.5
vertex 5.07948 -2.0274 0
vertex 5.07948 -2.0274 5.5
endloop
endfacet
facet normal 0 -1 0
outer loop
vertex 5.07948 -2.0274 0
vertex 3.1547 -2.0274 5.5
vertex 3.1547 -2.0274 0
endloop
endfacet
facet normal -0.8660261896949012 0.49999863876067796 0
outer loop
vertex -3.125 5.41266 5.5
vertex -4.61375 2.83406 0
vertex -4.61375 2.83406 5.5
endloop
endfacet
facet normal -0.8660261896949012 0.49999863876067796 0
outer loop
vertex -3.125 5.41266 0
vertex -4.61375 2.83406 0
vertex -3.125 5.41266 5.5
endloop
endfacet
facet normal 0 0 -0.9999999999999999
outer loop
vertex -4.61375 2.83406 0
vertex -3.125 5.41266 0
vertex -4.10697 3.71183 0
endloop
endfacet
facet normal -0.8660247824008758 0.5000010762663575 0
outer loop
vertex -4.61375 2.83406 0
vertex -6.25 0 5.5
vertex -4.61375 2.83406 5.5
endloop
endfacet
facet normal -0.8660247824008758 0.5000010762663575 0
outer loop
vertex -6.25 0 5.5
vertex -4.61375 2.83406 0
vertex -6.25 0 0
endloop
endfacet
facet normal 0 1 0
outer loop
vertex -5.64003 1.0565 0
vertex -3.5981 1.0565 5.5
vertex -3.5981 1.0565 0
endloop
endfacet
facet normal 0 1 0
outer loop
vertex -3.5981 1.0565 5.5
vertex -5.64003 1.0565 0
vertex -5.64003 1.0565 5.5
endloop
endfacet
facet normal 1 0 0
outer loop
vertex -3.5981 -1.0565 5.5
vertex -3.5981 1.0565 0
vertex -3.5981 1.0565 5.5
endloop
endfacet
facet normal 1 0 0
outer loop
vertex -3.5981 1.0565 0
vertex -3.5981 -1.0565 5.5
vertex -3.5981 -1.0565 0
endloop
endfacet
facet normal 0 -1 0
outer loop
vertex -5.64003 -1.0565 5.5
vertex -3.5981 -1.0565 0
vertex -3.5981 -1.0565 5.5
endloop
endfacet
facet normal 0 -1 0
outer loop
vertex -3.5981 -1.0565 0
vertex -5.64003 -1.0565 5.5
vertex -5.64003 -1.0565 0
endloop
endfacet
facet normal -0.9594927627536367 -0.28173327496657774 0
outer loop
vertex 3.1547 2.0274 0
vertex 3.75 0 5.5
vertex 3.1547 2.0274 5.5
endloop
endfacet
facet normal -0.9594927627536367 -0.28173327496657774 0
outer loop
vertex 3.75 0 5.5
vertex 3.1547 2.0274 0
vertex 3.75 0 0
endloop
endfacet
facet normal 0 1 0
outer loop
vertex 3.1547 2.0274 0
vertex 5.07948 2.0274 5.5
vertex 5.07948 2.0274 0
endloop
endfacet
facet normal 0 1 0
outer loop
vertex 5.07948 2.0274 5.5
vertex 3.1547 2.0274 0
vertex 3.1547 2.0274 5.5
endloop
endfacet
facet normal 0.8660254893327126 0.49999985182556145 -6.724037138241169e-7
outer loop
vertex 5.07948 2.0274 5.5
vertex 4.10697 3.71183 0
vertex 3.125 5.41266 5.5
endloop
endfacet
facet normal 0.8660253919011511 0.500000020582093 -6.034924898586759e-7
outer loop
vertex 6.25 0 5.5
vertex 4.10697 3.71183 0
vertex 5.07948 2.0274 5.5
endloop
endfacet
facet normal 0.8660250046907185 0.500000691249963 0
outer loop
vertex 6.25 0 0
vertex 4.10697 3.71183 0
vertex 6.25 0 5.5
endloop
endfacet
facet normal 0 0 1
outer loop
vertex 5.07948 2.0274 0
vertex 4.10697 3.71183 0
vertex 6.25 0 0
endloop
endfacet
facet normal 0 0 1
outer loop
vertex 4.10697 3.71183 0
vertex 5.07948 2.0274 0
vertex 4.28059 3.41112 0
endloop
endfacet
facet normal 0.8660264308586529 0.49999822105105834 0
outer loop
vertex 3.125 5.41266 5.5
vertex 4.10697 3.71183 0
vertex 3.125 5.41266 0
endloop
endfacet
facet normal 0 -1 0
outer loop
vertex 3.75 0 0
vertex 6.25 0 5.5
vertex 3.75 0 5.5
endloop
endfacet
facet normal 0 -1 0
outer loop
vertex 6.25 0 5.5
vertex 3.75 0 0
vertex 6.25 0 0
endloop
endfacet
facet normal 0 1 0
outer loop
vertex -4.61375 2.83406 0
vertex -2.45573 2.83406 5.5
vertex -2.45573 2.83406 0
endloop
endfacet
facet normal 0 1 0
outer loop
vertex -2.45573 2.83406 5.5
vertex -4.61375 2.83406 0
vertex -4.61375 2.83406 5.5
endloop
endfacet
facet normal 0.8412531984601871 -0.5406413377466666 0
outer loop
vertex -3.5981 1.0565 0
vertex -2.45573 2.83406 5.5
vertex -3.5981 1.0565 5.5
endloop
endfacet
facet normal 0.8412531984601873 -0.5406413377466661 0
outer loop
vertex -2.45573 2.83406 5.5
vertex -3.5981 1.0565 0
vertex -2.45573 2.83406 0
endloop
endfacet
facet normal 0 -1 0
outer loop
vertex -5.64003 1.0565 5.5
vertex -3.5981 1.0565 0
vertex -3.5981 1.0565 5.5
endloop
endfacet
facet normal 0 -1 0
outer loop
vertex -3.5981 1.0565 0
vertex -5.64003 1.0565 5.5
vertex -5.64003 1.0565 0
endloop
endfacet
facet normal -0.6548626094087565 -0.7557479492518352 0
outer loop
vertex 1.55781 3.41112 0
vertex 3.1547 2.0274 5.5
vertex 1.55781 3.41112 5.5
endloop
endfacet
facet normal -0.6548626094087563 -0.7557479492518352 0
outer loop
vertex 3.1547 2.0274 5.5
vertex 1.55781 3.41112 0
vertex 3.1547 2.0274 0
endloop
endfacet
facet normal 0 1 0
outer loop
vertex 1.55781 3.41112 0
vertex 4.28059 3.41112 5.5
vertex 4.28059 3.41112 0
endloop
endfacet
facet normal 0 1 0
outer loop
vertex 4.28059 3.41112 5.5
vertex 1.55781 3.41112 0
vertex 1.55781 3.41112 5.5
endloop
endfacet
facet normal 0 -1 0
outer loop
vertex 3.1547 2.0274 5.5
vertex 5.07948 2.0274 0
vertex 5.07948 2.0274 5.5
endloop
endfacet
facet normal 0 -1 0
outer loop
vertex 5.07948 2.0274 0
vertex 3.1547 2.0274 5.5
vertex 3.1547 2.0274 0
endloop
endfacet
facet normal 0 0.9999999999999999 0
outer loop
vertex -0.53368 3.71183 0
vertex 4.10697 3.71183 5.5
vertex 4.10697 3.71183 0
endloop
endfacet
facet normal 0 0.9999999999999999 0
outer loop
vertex -0.53368 3.71183 0
vertex -0.53368 3.71183 5.5
vertex 4.10697 3.71183 5.5
endloop
endfacet
facet normal 0 1 0
outer loop
vertex -4.10697 3.71183 0
vertex -0.53368 3.71183 5.5
vertex -0.53368 3.71183 0
endloop
endfacet
facet normal 0 1 0
outer loop
vertex -0.53368 3.71183 5.5
vertex -4.10697 3.71183 0
vertex -4.10697 3.71183 5.5
endloop
endfacet
facet normal 0.41541469048544377 -0.9096321426427735 0
outer loop
vertex -2.45573 2.83406 0
vertex -0.53368 3.71183 5.5
vertex -2.45573 2.83406 5.5
endloop
endfacet
facet normal 0.41541469048544377 -0.9096321426427735 0
outer loop
vertex -0.53368 3.71183 5.5
vertex -2.45573 2.83406 0
vertex -0.53368 3.71183 0
endloop
endfacet
facet normal 0 -1 0
outer loop
vertex -4.61375 2.83406 5.5
vertex -2.45573 2.83406 0
vertex -2.45573 2.83406 5.5
endloop
endfacet
facet normal 0 -1 0
outer loop
vertex -2.45573 2.83406 0
vertex -4.61375 2.83406 5.5
vertex -4.61375 2.83406 0
endloop
endfacet
facet normal -0.14231443760716933 -0.9898214994879406 0
outer loop
vertex -0.53368 3.71183 0
vertex 1.55781 3.41112 5.5
vertex -0.53368 3.71183 5.5
endloop
endfacet
facet normal -0.1423144376071694 -0.9898214994879406 0
outer loop
vertex 1.55781 3.41112 5.5
vertex -0.53368 3.71183 0
vertex 1.55781 3.41112 0
endloop
endfacet
facet normal 0 -1 0
outer loop
vertex 1.55781 3.41112 5.5
vertex 4.28059 3.41112 0
vertex 4.28059 3.41112 5.5
endloop
endfacet
facet normal 0 -1 0
outer loop
vertex 4.28059 3.41112 0
vertex 1.55781 3.41112 5.5
vertex 1.55781 3.41112 0
endloop
endfacet
facet normal 0 1 0
outer loop
vertex -3.125 5.41266 0
vertex 3.125 5.41266 5.5
vertex 3.125 5.41266 0
endloop
endfacet
facet normal 0 1 0
outer loop
vertex 3.125 5.41266 5.5
vertex -3.125 5.41266 0
vertex -3.125 5.41266 5.5
endloop
endfacet
facet normal 0 -0.9999999999999999 0
outer loop
vertex -0.53368 3.71183 5.5
vertex 4.10697 3.71183 0
vertex 4.10697 3.71183 5.5
endloop
endfacet
facet normal 0 -0.9999999999999999 0
outer loop
vertex -0.53368 3.71183 5.5
vertex -0.53368 3.71183 0
vertex 4.10697 3.71183 0
endloop
endfacet
facet normal 0 -1 0
outer loop
vertex -4.10697 3.71183 5.5
vertex -0.53368 3.71183 0
vertex -0.53368 3.71183 5.5
endloop
endfacet
facet normal 0 -1 0
outer loop
vertex -0.53368 3.71183 0
vertex -4.10697 3.71183 5.5
vertex -4.10697 3.71183 0
endloop
endfacet
facet normal 0 0 1
outer loop
vertex -5.64003 1.0565 5.5
vertex -3.5981 -1.0565 5.5
vertex -3.5981 1.0565 5.5
endloop
endfacet
facet normal 0 0 1
outer loop
vertex -5.64003 1.0565 5.5
vertex -5.64003 -1.0565 5.5
vertex -3.5981 -1.0565 5.5
endloop
endfacet
facet normal 0 0 1
outer loop
vertex -5.64003 -1.0565 5.5
vertex -5.64003 1.0565 5.5
vertex -6.25 0 5.5
endloop
endfacet
facet normal 0 0 1
outer loop
vertex -0.53368 -3.71183 5.5
vertex 3.125 -5.41266 5.5
vertex 4.10697 -3.71183 5.5
endloop
endfacet
facet normal 0 0 1
outer loop
vertex -0.53368 -3.71183 5.5
vertex -3.125 -5.41266 5.5
vertex 3.125 -5.41266 5.5
endloop
endfacet
facet normal 0 0 1
outer loop
vertex -3.125 -5.41266 5.5
vertex -0.53368 -3.71183 5.5
vertex -4.10697 -3.71183 5.5
endloop
endfacet
facet normal 0 0 1
outer loop
vertex -2.45573 -2.83406 5.5
vertex -4.10697 -3.71183 5.5
vertex -0.53368 -3.71183 5.5
endloop
endfacet
facet normal 0 0 1
outer loop
vertex -4.10697 -3.71183 5.5
vertex -2.45573 -2.83406 5.5
vertex -4.61375 -2.83406 5.5
endloop
endfacet
facet normal 0 0 1
outer loop
vertex 3.125 5.41266 5.5
vertex -0.53368 3.71183 5.5
vertex 4.10697 3.71183 5.5
endloop
endfacet
facet normal 0 0 1
outer loop
vertex -3.125 5.41266 5.5
vertex -0.53368 3.71183 5.5
vertex 3.125 5.41266 5.5
endloop
endfacet
facet normal 0 0 1
outer loop
vertex -0.53368 3.71183 5.5
vertex -3.125 5.41266 5.5
vertex -4.10697 3.71183 5.5
endloop
endfacet
facet normal 0 0 1
outer loop
vertex 5.07948 2.0274 5.5
vertex 3.75 0 5.5
vertex 6.25 0 5.5
endloop
endfacet
facet normal 0 0 1
outer loop
vertex 3.75 0 5.5
vertex 5.07948 2.0274 5.5
vertex 3.1547 2.0274 5.5
endloop
endfacet
facet normal 0 0 0.9999999999999999
outer loop
vertex 4.28059 3.41112 5.5
vertex 3.1547 2.0274 5.5
vertex 5.07948 2.0274 5.5
endloop
endfacet
facet normal 0 0 1
outer loop
vertex 3.1547 2.0274 5.5
vertex 4.28059 3.41112 5.5
vertex 1.55781 3.41112 5.5
endloop
endfacet
facet normal 0 0 0.9999999999999999
outer loop
vertex 3.1547 -2.0274 5.5
vertex 4.28059 -3.41112 5.5
vertex 5.07948 -2.0274 5.5
endloop
endfacet
facet normal 0 0 1
outer loop
vertex 4.28059 -3.41112 5.5
vertex 3.1547 -2.0274 5.5
vertex 1.55781 -3.41112 5.5
endloop
endfacet
facet normal 0 0 1
outer loop
vertex 3.75 0 5.5
vertex 5.07948 -2.0274 5.5
vertex 6.25 0 5.5
endloop
endfacet
facet normal 0 0 0.9999999999999999
outer loop
vertex 5.07948 -2.0274 5.5
vertex 3.75 0 5.5
vertex 3.1547 -2.0274 5.5
endloop
endfacet
facet normal 0 0 1
outer loop
vertex 4.10697 3.71183 5.5
vertex 1.55781 3.41112 5.5
vertex 4.28059 3.41112 5.5
endloop
endfacet
facet normal 0 0 1
outer loop
vertex 1.55781 3.41112 5.5
vertex 4.10697 3.71183 5.5
vertex -0.53368 3.71183 5.5
endloop
endfacet
facet normal 0 0 1
outer loop
vertex 1.55781 -3.41112 5.5
vertex 4.10697 -3.71183 5.5
vertex 4.28059 -3.41112 5.5
endloop
endfacet
facet normal 0 0 1
outer loop
vertex 4.10697 -3.71183 5.5
vertex 1.55781 -3.41112 5.5
vertex -0.53368 -3.71183 5.5
endloop
endfacet
facet normal 0 0 1
outer loop
vertex -4.10697 3.71183 5.5
vertex -2.45573 2.83406 5.5
vertex -0.53368 3.71183 5.5
endloop
endfacet
facet normal 0 0 1
outer loop
vertex -2.45573 2.83406 5.5
vertex -4.10697 3.71183 5.5
vertex -4.61375 2.83406 5.5
endloop
endfacet
facet normal 0 0 1
outer loop
vertex -4.61375 2.83406 5.5
vertex -3.5981 1.0565 5.5
vertex -2.45573 2.83406 5.5
endloop
endfacet
facet normal 0 0 0.9999999999999999
outer loop
vertex -3.5981 1.0565 5.5
vertex -4.61375 2.83406 5.5
vertex -5.64003 1.0565 5.5
endloop
endfacet
facet normal 0 0 1
outer loop
vertex -3.5981 -1.0565 5.5
vertex -4.61375 -2.83406 5.5
vertex -2.45573 -2.83406 5.5
endloop
endfacet
facet normal 0 0 1
outer loop
vertex -4.61375 -2.83406 5.5
vertex -3.5981 -1.0565 5.5
vertex -5.64003 -1.0565 5.5
endloop
endfacet
facet normal 0 0 -1
outer loop
vertex -3.5981 -1.0565 0
vertex -5.64003 1.0565 0
vertex -3.5981 1.0565 0
endloop
endfacet
facet normal 0 0 -1
outer loop
vertex -5.64003 -1.0565 0
vertex -5.64003 1.0565 0
vertex -3.5981 -1.0565 0
endloop
endfacet
facet normal 0 0 -1
outer loop
vertex -5.64003 1.0565 0
vertex -5.64003 -1.0565 0
vertex -6.25 0 0
endloop
endfacet
facet normal 0 0 -1
outer loop
vertex -4.61375 -2.83406 0
vertex -3.5981 -1.0565 0
vertex -2.45573 -2.83406 0
endloop
endfacet
facet normal 0 0 -0.9999999999999999
outer loop
vertex -3.5981 -1.0565 0
vertex -4.61375 -2.83406 0
vertex -5.64003 -1.0565 0
endloop
endfacet
facet normal 0 0 -1
outer loop
vertex 3.125 -5.41266 0
vertex -0.53368 -3.71183 0
vertex 4.10697 -3.71183 0
endloop
endfacet
facet normal 0 0 -1
outer loop
vertex -3.125 -5.41266 0
vertex -0.53368 -3.71183 0
vertex 3.125 -5.41266 0
endloop
endfacet
facet normal 0 0 -1
outer loop
vertex -0.53368 -3.71183 0
vertex -3.125 -5.41266 0
vertex -4.10697 -3.71183 0
endloop
endfacet
facet normal 0 0 -1
outer loop
vertex -0.53368 3.71183 0
vertex 3.125 5.41266 0
vertex 4.10697 3.71183 0
endloop
endfacet
facet normal 0 0 -1
outer loop
vertex -0.53368 3.71183 0
vertex -3.125 5.41266 0
vertex 3.125 5.41266 0
endloop
endfacet
facet normal 0 0 -1
outer loop
vertex -3.125 5.41266 0
vertex -0.53368 3.71183 0
vertex -4.10697 3.71183 0
endloop
endfacet
facet normal 0 0 -1
outer loop
vertex -2.45573 2.83406 0
vertex -4.10697 3.71183 0
vertex -0.53368 3.71183 0
endloop
endfacet
facet normal 0 0 -1
outer loop
vertex -4.10697 3.71183 0
vertex -2.45573 2.83406 0
vertex -4.61375 2.83406 0
endloop
endfacet
facet normal 0 0 -1
outer loop
vertex 4.10697 -3.71183 0
vertex 1.55781 -3.41112 0
vertex 4.28059 -3.41112 0
endloop
endfacet
facet normal 0 0 -1
outer loop
vertex 1.55781 -3.41112 0
vertex 4.10697 -3.71183 0
vertex -0.53368 -3.71183 0
endloop
endfacet
facet normal 0 0 -1
outer loop
vertex 5.07948 -2.0274 0
vertex 3.75 0 0
vertex 6.25 0 0
endloop
endfacet
facet normal 0 0 -1
outer loop
vertex 3.75 0 0
vertex 5.07948 -2.0274 0
vertex 3.1547 -2.0274 0
endloop
endfacet
facet normal 0 0 -0.9999999999999999
outer loop
vertex 4.28059 -3.41112 0
vertex 3.1547 -2.0274 0
vertex 5.07948 -2.0274 0
endloop
endfacet
facet normal 0 0 -1
outer loop
vertex 3.1547 -2.0274 0
vertex 4.28059 -3.41112 0
vertex 1.55781 -3.41112 0
endloop
endfacet
facet normal 0 0 -0.9999999999999999
outer loop
vertex 3.1547 2.0274 0
vertex 4.28059 3.41112 0
vertex 5.07948 2.0274 0
endloop
endfacet
facet normal 0 0 -1
outer loop
vertex 4.28059 3.41112 0
vertex 3.1547 2.0274 0
vertex 1.55781 3.41112 0
endloop
endfacet
facet normal 0 0 -1
outer loop
vertex 3.75 0 0
vertex 5.07948 2.0274 0
vertex 6.25 0 0
endloop
endfacet
facet normal 0 0 -0.9999999999999999
outer loop
vertex 5.07948 2.0274 0
vertex 3.75 0 0
vertex 3.1547 2.0274 0
endloop
endfacet
facet normal 0 0 -1
outer loop
vertex 1.55781 3.41112 0
vertex 4.10697 3.71183 0
vertex 4.28059 3.41112 0
endloop
endfacet
facet normal 0 0 -1
outer loop
vertex 4.10697 3.71183 0
vertex 1.55781 3.41112 0
vertex -0.53368 3.71183 0
endloop
endfacet
facet normal 0 0 -1
outer loop
vertex -4.10697 -3.71183 0
vertex -2.45573 -2.83406 0
vertex -0.53368 -3.71183 0
endloop
endfacet
facet normal 0 0 -1
outer loop
vertex -2.45573 -2.83406 0
vertex -4.10697 -3.71183 0
vertex -4.61375 -2.83406 0
endloop
endfacet
facet normal 0 0 -1
outer loop
vertex -3.5981 1.0565 0
vertex -4.61375 2.83406 0
vertex -2.45573 2.83406 0
endloop
endfacet
facet normal 0 0 -1
outer loop
vertex -4.61375 2.83406 0
vertex -3.5981 1.0565 0
vertex -5.64003 1.0565 0
endloop
endfacet
endsolid JSxCAD
